<svg width="24" height="24" viewBox="0 0 24 24" fill="none" xmlns="http://www.w3.org/2000/svg">
<path d="M4.80001 5.99998H0.936008C0.492007 5.99998 0.0480075 6.38398 0.108008 7.00798L1.98001 18.996C1.98001 18.996 4.20001 10.164 4.63201 8.03998C4.76401 7.40398 5.36401 7.19998 5.80801 7.19998H12C12 7.19998 11.16 4.70398 11.076 4.42798C10.932 3.89998 10.668 3.59998 10.14 3.59998H6.16801C5.73601 3.59998 5.32801 3.87598 5.20801 4.36798C5.10001 4.84798 4.80001 5.99998 4.80001 5.99998ZM10.656 5.99998H5.85601C5.85601 5.99998 6.36001 4.79998 6.90001 4.79998H9.45601C10.032 4.79998 10.656 5.99998 10.656 5.99998ZM3.20401 19.5C2.83201 20.064 2.29201 20.4 1.69201 20.4H20.568C21.216 20.4 21.672 20.028 21.804 19.404C22.332 16.776 23.82 9.27598 23.82 9.27598C23.904 8.67598 23.46 8.39998 23.076 8.39998H19.2V6.63598C19.2 6.44398 18.888 5.99998 18.408 5.99998H13.896C13.272 5.99998 12.852 6.69598 12.852 6.69598L12 8.39998H6.70801C6.32401 8.39998 5.95201 8.62798 5.88001 8.99998C5.88001 8.99998 3.97201 17.04 3.81601 17.796C3.73201 18.24 3.55201 18.984 3.20401 19.5ZM18.456 8.39998H13.2C13.2 8.39998 13.896 7.19998 14.556 7.19998H17.304C18.156 7.19998 18.456 8.39998 18.456 8.39998Z" fill="black"/>
</svg>
