<svg width="36" height="36" viewBox="0 0 36 36" fill="none" xmlns="http://www.w3.org/2000/svg">
<path d="M18 3.375C12.6833 3.375 9 7.1775 9 11.8125C9 14.0265 9.954 15.4687 11.214 16.9965L11.6955 17.5658C12.1972 18.1598 12.753 18.8167 13.2097 19.4737C13.8487 20.3985 14.418 21.4898 14.607 22.8263C14.652 23.2604 14.5271 23.6951 14.2584 24.0391C13.9897 24.3831 13.5982 24.6096 13.1661 24.6711C12.7339 24.7325 12.2948 24.6241 11.9408 24.3687C11.5869 24.1132 11.3458 23.7305 11.268 23.301C11.178 22.6665 10.9013 22.0702 10.4355 21.3952C10.0539 20.8659 9.64692 20.3553 9.216 19.8653L8.613 19.1452C7.20225 17.4375 5.625 15.2235 5.625 11.8125C5.625 5.1975 10.9417 0 18 0C25.0583 0 30.375 5.1975 30.375 11.8125C30.375 15.2235 28.7977 17.4375 27.387 19.1452C27.174 19.4032 26.973 19.6425 26.784 19.863C26.3183 20.4143 25.9222 20.8822 25.5667 21.3952C25.0987 22.0702 24.8243 22.6665 24.7343 23.301C24.6513 23.7263 24.4081 24.1034 24.055 24.3545C23.7019 24.6056 23.2659 24.7115 22.837 24.6502C22.408 24.589 22.019 24.3653 21.7503 24.0255C21.4816 23.6856 21.3537 23.2555 21.393 22.824C21.582 21.4898 22.1512 20.3985 22.7902 19.4737C23.247 18.8167 23.8028 18.1598 24.3045 17.5658L24.7838 16.9965C26.046 15.4687 27 14.0265 27 11.8125C27 7.1775 23.3167 3.375 18 3.375ZM12.9375 27H23.0625C23.5101 27 23.9393 27.1778 24.2557 27.4943C24.5722 27.8107 24.75 28.2399 24.75 28.6875C24.75 29.1351 24.5722 29.5643 24.2557 29.8807C23.9393 30.1972 23.5101 30.375 23.0625 30.375H12.9375C12.4899 30.375 12.0607 30.1972 11.7443 29.8807C11.4278 29.5643 11.25 29.1351 11.25 28.6875C11.25 28.2399 11.4278 27.8107 11.7443 27.4943C12.0607 27.1778 12.4899 27 12.9375 27ZM13.5 34.3125C13.5 33.8649 13.6778 33.4357 13.9943 33.1193C14.3107 32.8028 14.7399 32.625 15.1875 32.625H20.8125C21.2601 32.625 21.6893 32.8028 22.0057 33.1193C22.3222 33.4357 22.5 33.8649 22.5 34.3125C22.5 34.7601 22.3222 35.1893 22.0057 35.5057C21.6893 35.8222 21.2601 36 20.8125 36H15.1875C14.7399 36 14.3107 35.8222 13.9943 35.5057C13.6778 35.1893 13.5 34.7601 13.5 34.3125Z" fill="black"/>
</svg>
