<svg width="36" height="36" viewBox="0 0 36 36" fill="none" xmlns="http://www.w3.org/2000/svg">
<path d="M36 6.75V29.25H0V6.75H11.25V4.5C11.25 4.18359 11.3086 3.89062 11.4258 3.62109C11.543 3.35156 11.7012 3.11719 11.9004 2.91797C12.0996 2.71875 12.3398 2.55469 12.6211 2.42578C12.9023 2.29687 13.1953 2.23828 13.5 2.25H22.5C22.8164 2.25 23.1094 2.30859 23.3789 2.42578C23.6484 2.54297 23.8828 2.70117 24.082 2.90039C24.2812 3.09961 24.4453 3.33984 24.5742 3.62109C24.7031 3.90234 24.7617 4.19531 24.75 4.5V6.75H36ZM13.5 6.75H22.5V4.5H13.5V6.75ZM2.25 9V12.252L13.5 17.8594V15.75H22.5V17.8594L33.75 12.252V9H2.25ZM15.75 18V20.25H20.25V18H15.75ZM33.75 27V14.748L22.5 20.3906V22.5H13.5V20.3906L2.25 14.748V27H33.75Z" fill="black"/>
</svg>
